# xmcd
# 
# Track frame offsets:
#     150
#     23904
#     40200
#     60246
#     72738
#     86601
#     101010
#     126337
#     140831
#     148777
#     163224
#     174986
# 
# Disc length: 2603
# 
# Revision: 1
# Processed by: cddbd v1.5.2PL0 Copyright (c) Steve Scherf et al.
# Submitted via: fre:ac v1.0.31
# 
DISCID=b20a290c
DTITLE=Despondent Transponder - Fleeting Joys
DYEAR=2006
DGENRE=Shoegaze
TTITLE0=The Breakup
TTITLE1=Lovely Crawl
TTITLE2=Go and Come Back
TTITLE3=I Want More Life
TTITLE4=Satellite
TTITLE5=While I'm Waiting
TTITLE6=Magnificent Oblivion
TTITLE7=Where Do I End
TTITLE8=Young Girls' Fangs
TTITLE9=Patron Saint
TTITLE10=Cross Out My Heart
TTITLE11=Morphine Drip
EXTD=
EXTT0=
EXTT1=
EXTT2=
EXTT3=
EXTT4=
EXTT5=
EXTT6=
EXTT7=
EXTT8=
EXTT9=
EXTT10=
EXTT11=
PLAYORDER=
